<svg xmlns="http://www.w3.org/2000/svg" viewBox="0 0 100 100">
  <g fill="#333">
    <path d="M66.68 13.87L50.14 66.55 33.24 13.9A39.84 39.84 0 0 0 10.14 50a39.84 39.84 0 0 0 10.6 27l6.3-31.5 15.93 43.68a39.84 39.84 0 0 0 7.02.66 39.84 39.84 0 0 0 7.37-.72l15.9-43.62 6.04 31.4A39.84 39.84 0 0 0 89.85 50a39.84 39.84 0 0 0-23.16-36.13z"/>
    <path d="M50 0A50 50 0 0 0 0 50a50 50 0 0 0 50 50 50 50 0 0 0 50-50A50 50 0 0 0 50 0zm0 4.34A45.66 45.66 0 0 1 95.66 50 45.66 45.66 0 0 1 50 95.66 45.66 45.66 0 0 1 4.34 50 45.66 45.66 0 0 1 50 4.34z"/>
  </g>
</svg>
