<svg xmlns="http://www.w3.org/2000/svg" viewBox="0 0 300 244.19">
  <path fill="#1da1f2" d="M94.72 243.18c112.46 0 173.96-93.17 173.96-173.96 0-2.65-.05-5.28-.17-7.9 11.97-8.63 22.34-19.4 30.5-31.66-10.93 4.87-22.72 8.14-35.1 9.62 12.64-7.57 22.3-19.54 26.9-33.8-11.8 7-24.9 12.08-38.82 14.83C240.8 8.45 224.92 1 207.33 1c-33.77 0-61.15 27.37-61.15 61.12 0 4.8.54 9.47 1.6 13.94-50.83-2.55-95.9-26.88-126.04-63.88-5.25 9.04-8.28 19.53-8.28 30.73 0 21.24 10.8 39.97 27.2 50.9-10.02-.3-19.45-3.04-27.68-7.62v.78c0 29.6 21.06 54.33 49.04 59.93-5.14 1.4-10.54 2.15-16.12 2.15-3.94 0-7.77-.4-11.5-1.1 7.8 24.3 30.36 41.96 57.12 42.46-20.92 16.4-47.28 26.17-75.93 26.17-4.96 0-9.8-.28-14.6-.85 27.04 17.37 59.2 27.5 93.7 27.5"/>
</svg>
